<svg version="1.1" id="Layer_1" xmlns="http://www.w3.org/2000/svg" xmlns:xlink="http://www.w3.org/1999/xlink" x="0px" y="0px"
	 width="100%" viewBox="0 0 336 315" enable-background="new 0 0 336 315" xml:space="preserve">
<path fill="#FFFFFF" opacity="1.000000" stroke="none" 
	d="
M337.000000,116.000000 
	C337.000000,183.000000 337.000000,249.500000 337.000000,316.000000 
	C225.000000,316.000000 113.000000,316.000000 1.000000,316.000000 
	C1.000000,211.000000 1.000000,106.000000 1.000000,1.000000 
	C113.000000,1.000000 225.000000,1.000000 337.000000,1.000000 
	C337.000000,39.166668 337.000000,77.333336 337.000000,116.000000 
M199.245346,48.103916 
	C192.490265,48.103916 185.735168,48.103916 178.417084,48.103916 
	C178.417084,55.779305 178.417084,62.888432 178.478622,69.966446 
	C178.478622,69.966446 178.403442,69.975029 177.380341,69.987663 
	C170.413391,69.976074 163.446426,69.964478 156.509460,70.007347 
	C156.509460,70.007347 156.571564,70.004593 156.320801,69.095535 
	C156.320801,62.193077 156.320801,55.290615 156.320801,48.160259 
	C148.700668,48.160259 141.746964,48.160259 134.533752,47.898819 
	C134.533752,47.898819 134.165634,47.913170 134.096695,46.992706 
	C134.096695,40.083160 134.096695,33.173615 134.096695,26.311855 
	C111.787056,26.311855 89.994034,26.311855 67.935196,26.311855 
	C67.935196,33.779484 67.935196,40.901478 68.013016,48.004963 
	C68.013016,48.004963 68.011993,47.924976 67.083870,48.079903 
	C60.179287,48.079903 53.274704,48.079903 45.924992,48.079903 
	C45.924992,55.790245 45.924992,62.894615 45.993286,70.001595 
	C45.993286,70.001595 45.995972,69.933304 45.060585,69.986427 
	C38.134151,69.986427 31.207720,69.986427 24.296268,69.986427 
	C24.296268,99.744827 24.296268,129.026306 24.296268,158.544754 
	C31.774130,158.544754 38.911415,158.544754 46.026600,158.502548 
	C46.026600,158.502548 45.990856,158.502869 46.084957,159.539932 
	C46.084957,166.410599 46.084957,173.281265 46.084957,180.522919 
	C53.799767,180.522919 60.883499,180.522919 67.935333,180.625275 
	C67.935333,180.625275 68.016197,180.695679 68.024940,181.691040 
	C68.024940,188.691238 68.024940,195.691452 68.024940,202.902298 
	C75.884827,202.902298 82.961632,202.902298 90.182877,203.850128 
	C90.182877,210.705475 90.182877,217.560806 90.182877,224.831665 
	C97.946777,224.831665 105.009735,224.831665 112.222092,225.784164 
	C112.222092,232.718613 112.222092,239.653061 112.222092,246.938599 
	C119.829643,246.938599 126.940826,246.938599 134.312225,247.852478 
	C134.312225,254.745819 134.312225,261.639160 134.312225,268.937317 
	C141.955933,268.937317 149.026901,268.937317 156.054916,268.974365 
	C156.054916,268.974365 156.039383,268.919800 156.516800,269.761688 
	C156.516800,276.728241 156.516800,283.694794 156.516800,290.749695 
	C164.058365,290.749695 171.149933,290.749695 178.577866,290.749695 
	C178.577866,283.303314 178.577866,276.146912 178.545700,269.039856 
	C178.545700,269.039856 178.601303,269.011505 179.621124,268.911835 
	C186.521042,268.911835 193.420975,268.911835 200.933029,268.911835 
	C200.933029,261.127747 200.933029,254.021164 201.879181,247.008682 
	C208.784225,247.008682 215.689270,247.008682 222.916763,247.008682 
	C222.916763,239.101837 222.916763,231.963699 223.860764,224.736267 
	C230.735809,224.736267 237.610855,224.736267 244.962189,224.736267 
	C244.962189,217.017120 244.962189,209.940170 245.903519,202.826950 
	C252.787582,202.826950 259.671661,202.826950 266.996552,202.826950 
	C266.996552,195.141541 266.996552,187.922241 267.034576,180.643326 
	C267.034576,180.643326 267.010315,180.576920 267.930908,180.374893 
	C274.806671,180.374893 281.682434,180.374893 289.061432,180.374893 
	C289.061432,172.713699 289.061432,165.640808 289.333771,158.689514 
	C289.333771,158.689514 289.587433,158.536819 289.587433,158.536819 
	C289.587433,158.536819 289.552979,158.242889 290.543793,158.318848 
	C297.288910,158.318848 304.034058,158.318848 310.733032,158.318848 
	C310.733032,128.633942 310.733032,99.411430 310.733032,70.027107 
	C303.277710,70.027107 296.132507,70.027107 288.926544,69.087433 
	C288.926544,62.178108 288.926544,55.268784 288.926544,48.025032 
	C281.190186,48.025032 274.075592,48.025032 266.960785,47.084679 
	C266.960785,40.164948 266.960785,33.245220 266.960785,26.261616 
	C244.697235,26.261616 222.901367,26.261616 200.835190,26.261616 
	C200.835190,33.676991 200.835190,40.793766 200.466415,47.883438 
	C200.466415,47.883438 200.207703,48.146717 199.245346,48.103916 
z"/>
<path fill="#030101" opacity="1.000000" stroke="none" 
	d="
M288.987274,70.027107 
	C296.132507,70.027107 303.277710,70.027107 310.733032,70.027107 
	C310.733032,99.411430 310.733032,128.633942 310.733032,158.318848 
	C304.034058,158.318848 297.288910,158.318848 289.950317,158.135208 
	C289.356873,157.951569 289.000519,157.976974 288.998322,157.989624 
	C288.996124,158.002274 289.021210,157.997208 289.052917,157.529785 
	C289.050293,128.053497 289.015900,99.044609 288.988220,70.027542 
	C288.994904,70.019356 288.987274,70.027107 288.987274,70.027107 
z"/>
<path fill="#030101" opacity="1.000000" stroke="none" 
	d="
M46.048702,158.544754 
	C38.911415,158.544754 31.774130,158.544754 24.296268,158.544754 
	C24.296268,129.026306 24.296268,99.744827 24.296268,69.986427 
	C31.207720,69.986427 38.134151,69.986427 45.552727,70.310783 
	C46.064529,71.101654 46.084187,71.568169 46.031891,72.495644 
	C45.986073,101.271797 46.012207,129.586990 45.924355,158.064713 
	C45.810368,158.227234 46.048702,158.544754 46.048702,158.544754 
z"/>
<path fill="#B4151B" opacity="1.000000" stroke="none" 
	d="
M46.103844,72.034683 
	C46.084187,71.568169 46.064529,71.101654 46.020424,70.284225 
	C45.995972,69.933304 45.993286,70.001595 46.314980,69.985939 
	C47.107090,70.021835 47.577499,70.073387 48.353657,70.396240 
	C55.101284,70.782112 61.543171,70.896706 67.989120,71.479233 
	C68.015137,100.627800 68.037079,129.308441 67.889359,158.036041 
	C67.497078,158.165710 67.308342,158.297073 66.687965,158.585388 
	C59.478584,158.630096 52.734722,158.566483 45.990856,158.502869 
	C45.990856,158.502869 46.026600,158.502548 46.037651,158.523651 
	C46.048702,158.544754 45.810368,158.227234 46.222908,157.785431 
	C46.757298,156.533096 46.985081,155.722672 46.985657,154.912064 
	C47.004417,128.526077 47.013477,102.140045 46.963367,75.754128 
	C46.961010,74.513779 46.403049,73.274475 46.103844,72.034683 
z"/>
<path fill="#B5151B" opacity="1.000000" stroke="none" 
	d="
M134.165634,47.913170 
	C134.165634,47.913170 134.533752,47.898819 134.695450,48.445023 
	C134.624252,55.942188 134.391357,62.893154 134.075043,69.926743 
	C133.991608,70.009361 133.830856,70.180557 133.380890,70.118271 
	C111.271843,70.017853 89.612740,69.979736 67.950699,69.476685 
	C67.969162,61.982819 67.990578,54.953899 68.011993,47.924976 
	C68.011993,47.924976 68.013016,48.004963 68.446045,47.974621 
	C90.641258,47.933910 112.403450,47.923542 134.165634,47.913170 
z"/>
<path fill="#020201" opacity="1.000000" stroke="none" 
	d="
M134.131165,47.452942 
	C112.403450,47.923542 90.641258,47.933910 68.407135,47.983879 
	C67.935196,40.901478 67.935196,33.779484 67.935196,26.311855 
	C89.994034,26.311855 111.787056,26.311855 134.096695,26.311855 
	C134.096695,33.173615 134.096695,40.083160 134.131165,47.452942 
z"/>
<path fill="#020101" opacity="1.000000" stroke="none" 
	d="
M200.835190,47.910542 
	C200.835190,40.793766 200.835190,33.676991 200.835190,26.261616 
	C222.901367,26.261616 244.697235,26.261616 266.960785,26.261616 
	C266.960785,33.245220 266.960785,40.164948 266.976440,47.543045 
	C266.992065,48.001415 266.958008,48.024685 266.562775,47.981064 
	C265.111603,48.000927 264.055664,48.064415 262.534790,48.065525 
	C245.046173,48.044712 228.022537,48.086277 210.544128,48.061180 
	C207.004639,47.966526 203.919907,47.938534 200.835190,47.910542 
z"/>
<path fill="#B0151C" opacity="1.000000" stroke="none" 
	d="
M178.403442,69.975029 
	C178.403442,69.975029 178.478622,69.966446 178.957947,69.962212 
	C186.548050,69.651093 193.658829,69.344208 200.973099,69.076065 
	C201.460770,69.427086 201.744980,69.739365 201.714737,70.327049 
	C201.250732,76.026825 200.798904,81.465172 201.048767,86.871078 
	C201.242966,91.072266 199.787216,92.189346 195.720581,92.128143 
	C189.855118,92.039864 183.978210,92.712189 177.627533,93.040817 
	C170.406509,93.020821 163.664139,93.019943 156.900665,92.811127 
	C156.879547,92.603172 156.918808,92.186974 157.389587,92.133133 
	C164.468658,92.079285 171.076935,92.079285 178.403442,92.079285 
	C178.403442,84.219292 178.403442,77.097160 178.403442,69.975029 
z"/>
<path fill="#AE1E23" opacity="1.000000" stroke="none" 
	d="
M178.601303,269.011505 
	C178.601303,269.011505 178.545700,269.039856 178.054901,269.060059 
	C170.389191,269.026764 163.214294,268.973297 156.039383,268.919800 
	C156.039383,268.919800 156.054916,268.974365 156.078644,268.490723 
	C156.052017,261.039154 156.001663,254.071243 155.964020,246.836792 
	C155.978012,246.392456 155.979294,246.214630 156.193512,246.031158 
	C156.406448,246.025482 156.832443,246.021027 157.148331,246.313309 
	C164.627579,246.396988 171.790955,246.188370 179.427185,245.987061 
	C186.254639,246.291489 192.609222,246.588623 198.500809,246.944336 
	C191.792236,247.002914 185.546631,247.002914 178.601303,247.002914 
	C178.601303,254.833527 178.601303,261.922516 178.601303,269.011505 
z"/>
<path fill="#AF1B22" opacity="1.000000" stroke="none" 
	d="
M267.010315,180.576920 
	C267.010315,180.576920 267.034576,180.643326 266.548645,180.753754 
	C259.029266,180.890274 251.995789,180.916382 244.963333,180.478088 
	C244.978378,174.025131 245.117172,168.033173 244.953995,162.049454 
	C244.871887,159.038635 245.862625,157.911240 248.946060,157.995880 
	C254.928879,158.160110 260.920685,157.996368 267.285706,157.830597 
	C270.424377,157.942245 273.186096,158.191788 275.511292,158.564606 
	C272.505402,158.832108 269.936005,158.976318 267.010315,159.140533 
	C267.010315,166.663086 267.010315,173.619995 267.010315,180.576920 
z"/>
<path fill="#B21B20" opacity="1.000000" stroke="none" 
	d="
M68.016197,180.695679 
	C68.016197,180.695679 67.935333,180.625275 67.939224,180.067902 
	C67.986809,172.659958 68.030502,165.809402 68.525803,158.956390 
	C74.057381,158.651443 79.153175,158.506561 84.212517,157.998672 
	C88.588814,157.559341 90.471123,158.814865 90.113113,163.615417 
	C89.684761,169.359177 90.029968,175.160629 89.569435,180.915024 
	C82.071220,180.827194 75.043709,180.761429 68.016197,180.695679 
z"/>
<path fill="#B7151B" opacity="1.000000" stroke="none" 
	d="
M156.571564,70.004593 
	C156.571564,70.004593 156.509460,70.007347 156.577545,70.449158 
	C156.577118,77.642632 156.508606,84.394302 156.328079,91.280502 
	C156.091904,91.622772 156.007690,91.845612 155.497620,92.061615 
	C149.546295,92.033485 144.053864,91.858818 138.577774,92.082954 
	C135.173035,92.222313 133.826904,91.219543 133.958923,87.619965 
	C134.171783,81.816208 133.898682,75.994614 133.830872,70.180557 
	C133.830856,70.180557 133.991608,70.009361 134.297897,69.983452 
	C134.604187,69.957542 135.035858,70.116608 135.342590,70.389633 
	C142.080978,70.498459 148.512634,70.334244 155.347260,70.090889 
	C156.024017,70.009361 156.297791,70.006981 156.571564,70.004593 
z"/>
<path fill="#060404" opacity="1.000000" stroke="none" 
	d="
M155.951324,247.103317 
	C156.001663,254.071243 156.052017,261.039154 156.100128,268.472198 
	C149.026901,268.937317 141.955933,268.937317 134.312225,268.937317 
	C134.312225,261.639160 134.312225,254.745819 134.163025,247.412155 
	C134.013824,246.971832 134.046204,246.962540 134.370392,247.044495 
	C135.133621,247.054993 135.572647,246.983536 136.475922,246.971436 
	C143.277237,247.054962 149.614273,247.079147 155.951324,247.103317 
z"/>
<path fill="#080606" opacity="1.000000" stroke="none" 
	d="
M67.547928,48.002441 
	C67.990578,54.953899 67.969162,61.982819 67.957489,69.481384 
	C67.967239,69.951019 67.948944,69.942703 67.484528,69.942337 
	C60.696045,70.002968 54.371979,70.063957 48.047913,70.124947 
	C47.577499,70.073387 47.107090,70.021835 46.280834,69.984634 
	C45.924992,62.894615 45.924992,55.790245 45.924992,48.079903 
	C53.274704,48.079903 60.179287,48.079903 67.547928,48.002441 
z"/>
<path fill="#060606" opacity="1.000000" stroke="none" 
	d="
M68.020569,181.193359 
	C75.043709,180.761429 82.071220,180.827194 89.552567,180.924911 
	C90.006401,180.956879 90.037712,180.976044 90.030807,181.442230 
	C90.076920,186.254288 90.129921,190.600143 90.129456,195.330688 
	C90.110374,196.489578 90.144775,197.263748 90.113403,198.400558 
	C90.089279,199.496307 90.130920,200.229446 90.112282,201.291290 
	C90.052780,202.063858 90.053558,202.507721 90.025223,202.950409 
	C89.996117,202.949249 90.038429,202.902298 90.038429,202.902298 
	C82.961632,202.902298 75.884827,202.902298 68.024940,202.902298 
	C68.024940,195.691452 68.024940,188.691238 68.020569,181.193359 
z"/>
<path fill="#060404" opacity="1.000000" stroke="none" 
	d="
M179.111206,268.961670 
	C178.601303,261.922516 178.601303,254.833527 178.601303,247.002914 
	C185.546631,247.002914 191.792236,247.002914 198.830872,247.031830 
	C200.067642,247.028122 200.511383,246.995499 200.959183,246.950638 
	C200.963242,246.938400 200.933029,246.914566 200.933029,246.914566 
	C200.933029,254.021164 200.933029,261.127747 200.933029,268.911835 
	C193.420975,268.911835 186.521042,268.911835 179.111206,268.961670 
z"/>
<path fill="#060606" opacity="1.000000" stroke="none" 
	d="
M244.962311,180.942474 
	C251.995789,180.916382 259.029266,180.890274 266.529663,180.783554 
	C266.996552,187.922241 266.996552,195.141541 266.996552,202.826950 
	C259.671661,202.826950 252.787582,202.826950 245.451920,202.872681 
	C245.000320,202.918396 244.942215,202.951569 244.977997,202.617584 
	C244.944946,201.841431 244.876129,201.399292 244.876434,200.496826 
	C244.950729,193.681351 244.955917,187.326157 244.976730,180.968369 
	C244.992355,180.965759 244.962311,180.942474 244.962311,180.942474 
z"/>
<path fill="#030304" opacity="1.000000" stroke="none" 
	d="
M112.072701,224.831665 
	C105.009735,224.831665 97.946777,224.831665 90.182877,224.831665 
	C90.182877,217.560806 90.182877,210.705475 90.110657,203.376221 
	C90.038429,202.902298 89.996117,202.949249 90.407326,202.974930 
	C91.575226,202.887756 92.331917,202.774902 93.540840,202.755905 
	C100.004684,202.886932 106.016289,202.924103 112.013748,202.980545 
	C111.999588,202.999817 112.038849,202.972733 112.035637,203.443329 
	C112.038948,210.926270 112.045464,217.938599 112.045815,224.919159 
	C112.039642,224.887360 112.072701,224.831665 112.072701,224.831665 
z"/>
<path fill="#030202" opacity="1.000000" stroke="none" 
	d="
M244.981262,202.890808 
	C244.962189,209.940170 244.962189,217.017120 244.962189,224.736267 
	C237.610855,224.736267 230.735809,224.736267 223.405685,224.809265 
	C222.950607,224.882278 222.946701,224.948212 223.021530,224.487686 
	C223.046387,217.005264 222.996429,209.983383 222.973602,202.979553 
	C223.000763,202.997620 222.960419,202.946167 223.431824,202.940063 
	C230.244644,202.864319 236.586060,202.794662 243.257599,202.815826 
	C244.039246,202.921646 244.490723,202.936615 244.942215,202.951569 
	C244.942215,202.951569 245.000320,202.918396 244.981262,202.890808 
z"/>
<path fill="#040101" opacity="1.000000" stroke="none" 
	d="
M134.032913,246.955215 
	C126.940826,246.938599 119.829643,246.938599 112.222092,246.938599 
	C112.222092,239.653061 112.222092,232.718613 112.147400,225.307922 
	C112.072701,224.831665 112.039642,224.887360 112.506912,224.988876 
	C119.840805,225.090393 126.707420,225.090393 134.328003,225.090393 
	C134.328003,232.123138 134.328003,238.516266 134.257080,245.247925 
	C134.139496,246.045166 134.092850,246.503860 134.046204,246.962540 
	C134.046204,246.962540 134.013824,246.971832 134.032913,246.955215 
z"/>
<path fill="#040101" opacity="1.000000" stroke="none" 
	d="
M222.933685,224.853912 
	C222.916763,231.963699 222.916763,239.101837 222.916763,247.008682 
	C215.689270,247.008682 208.784225,247.008682 201.406097,246.961624 
	C200.933029,246.914566 200.963242,246.938400 200.919937,246.603302 
	C200.819641,245.807907 200.762650,245.347610 200.800018,244.438110 
	C200.947205,237.701614 201.000000,231.414307 201.516510,225.087769 
	C208.969055,225.015091 215.957870,224.981644 222.946701,224.948212 
	C222.946701,224.948212 222.950607,224.882278 222.933685,224.853912 
z"/>
<path fill="#080606" opacity="1.000000" stroke="none" 
	d="
M266.976532,48.013222 
	C274.075592,48.025032 281.190186,48.025032 288.926544,48.025032 
	C288.926544,55.268784 288.926544,62.178108 288.956909,69.557266 
	C288.987274,70.027107 288.994904,70.019356 288.521851,69.993347 
	C281.098328,69.918488 274.147858,69.869637 267.154144,69.367340 
	C267.059937,61.950829 267.008972,54.987759 266.958008,48.024685 
	C266.958008,48.024685 266.992065,48.001415 266.976532,48.013222 
z"/>
<path fill="#050403" opacity="1.000000" stroke="none" 
	d="
M156.446182,69.550064 
	C156.297791,70.006981 156.024017,70.009361 154.890533,70.008240 
	C147.699173,70.042030 141.367508,70.079323 135.035858,70.116608 
	C135.035858,70.116608 134.604187,69.957542 134.381317,69.900833 
	C134.391357,62.893154 134.624252,55.942188 134.825211,48.575745 
	C141.746964,48.160259 148.700668,48.160259 156.320801,48.160259 
	C156.320801,55.290615 156.320801,62.193077 156.446182,69.550064 
z"/>
<path fill="#040303" opacity="1.000000" stroke="none" 
	d="
M156.278091,269.340759 
	C163.214294,268.973297 170.389191,269.026764 178.070984,269.035400 
	C178.577866,276.146912 178.577866,283.303314 178.577866,290.749695 
	C171.149933,290.749695 164.058365,290.749695 156.516800,290.749695 
	C156.516800,283.694794 156.516800,276.728241 156.278091,269.340759 
z"/>
<path fill="#060405" opacity="1.000000" stroke="none" 
	d="
M267.470612,180.475906 
	C267.010315,173.619995 267.010315,166.663086 267.010315,159.140533 
	C269.936005,158.976318 272.505402,158.832108 275.964783,158.687073 
	C279.953247,158.626205 283.051788,158.566147 286.383301,158.570541 
	C286.965515,158.598846 287.237976,158.434830 287.566467,158.214813 
	C287.699249,158.286621 287.990540,158.207031 288.261414,158.219452 
	C288.695251,158.153656 288.858215,158.075439 289.021210,157.997208 
	C289.021210,157.997208 288.996124,158.002274 288.910889,158.147949 
	C288.825653,158.293640 289.061432,158.567917 289.061432,158.567917 
	C289.061432,165.640808 289.061432,172.713699 289.061432,180.374893 
	C281.682434,180.374893 274.806671,180.374893 267.470612,180.475906 
z"/>
<path fill="#050403" opacity="1.000000" stroke="none" 
	d="
M200.769623,69.037323 
	C193.658829,69.344208 186.548050,69.651093 178.927170,69.977768 
	C178.417084,62.888432 178.417084,55.779305 178.417084,48.103916 
	C185.735168,48.103916 192.490265,48.103916 199.732590,48.450737 
	C200.382874,49.196037 200.545914,49.594513 200.553009,50.441570 
	C200.521240,56.939209 200.645432,62.988266 200.769623,69.037323 
z"/>
<path fill="#030101" opacity="1.000000" stroke="none" 
	d="
M156.440094,91.145966 
	C156.508606,84.394302 156.577118,77.642632 156.562561,70.421928 
	C163.446426,69.964478 170.413391,69.976074 177.891891,69.981346 
	C178.403442,77.097160 178.403442,84.219292 178.403442,92.079285 
	C171.076935,92.079285 164.468658,92.079285 157.385269,92.082336 
	C156.910156,92.085396 156.812790,92.113930 156.777878,91.849503 
	C156.642014,91.438713 156.541061,91.292343 156.440094,91.145966 
z"/>
<path fill="#060404" opacity="1.000000" stroke="none" 
	d="
M68.074196,158.958832 
	C68.030502,165.809402 67.986809,172.659958 67.955170,180.016724 
	C60.883499,180.522919 53.799767,180.522919 46.084957,180.522919 
	C46.084957,173.281265 46.084957,166.410599 46.037907,159.021393 
	C52.734722,158.566483 59.478584,158.630096 66.891098,158.741302 
	C67.724480,158.833527 67.889214,158.878159 68.040253,158.941376 
	C68.026558,158.959961 68.074196,158.958832 68.074196,158.958832 
z"/>
<path fill="#B0151C" opacity="1.000000" stroke="none" 
	d="
M200.708954,49.992985 
	C200.545914,49.594513 200.382874,49.196037 200.213776,48.472137 
	C200.207703,48.146717 200.466415,47.883438 200.650803,47.896988 
	C203.919907,47.938534 207.004639,47.966526 210.445633,48.437927 
	C207.437592,49.251881 204.073288,49.622429 200.708954,49.992985 
z"/>
<path fill="#AF1B22" opacity="1.000000" stroke="none" 
	d="
M289.197601,158.628723 
	C289.061432,158.567917 288.825653,158.293640 288.913086,158.135315 
	C289.000519,157.976974 289.356873,157.951569 289.454926,158.097229 
	C289.552979,158.242889 289.587433,158.536819 289.587433,158.536819 
	C289.587433,158.536819 289.333771,158.689514 289.197601,158.628723 
z"/>
<path fill="#AF1B22" opacity="1.000000" stroke="none" 
	d="
M289.052917,157.529785 
	C288.858215,158.075439 288.695251,158.153656 288.263977,157.730225 
	C287.996643,130.132629 287.916718,103.036156 288.086792,75.941269 
	C288.111969,71.932167 286.894592,70.710358 282.990936,70.931259 
	C277.688385,71.231316 272.356262,71.008316 266.995209,70.793213 
	C266.953613,70.576775 266.833405,70.152695 266.923920,70.069199 
	C267.014435,69.985703 267.197388,69.820786 267.197388,69.820786 
	C274.147858,69.869637 281.098328,69.918488 288.515167,70.001534 
	C289.015900,99.044609 289.050293,128.053497 289.052917,157.529785 
z"/>
<path fill="#B21B20" opacity="1.000000" stroke="none" 
	d="
M46.031891,72.495644 
	C46.403049,73.274475 46.961010,74.513779 46.963367,75.754128 
	C47.013477,102.140045 47.004417,128.526077 46.985657,154.912064 
	C46.985081,155.722672 46.757298,156.533096 46.336891,157.622894 
	C46.012207,129.586990 45.986073,101.271797 46.031891,72.495644 
z"/>
<path fill="#EE1C25" opacity="1.000000" stroke="none" 
	d="
M133.380905,70.118271 
	C133.898682,75.994614 134.171783,81.816208 133.958923,87.619965 
	C133.826904,91.219543 135.173035,92.222313 138.577774,92.082954 
	C144.053864,91.858818 149.546295,92.033485 155.709503,92.087372 
	C156.387177,92.135078 156.812790,92.113930 156.812790,92.113930 
	C156.812790,92.113930 156.910156,92.085396 156.914490,92.136185 
	C156.918808,92.186974 156.879547,92.603172 156.866028,93.224159 
	C156.583038,99.278198 156.399826,104.717445 156.011002,110.141937 
	C155.786057,113.279793 157.160461,114.156067 160.091599,114.067314 
	C165.723694,113.896782 171.363998,113.997276 177.321060,113.947937 
	C177.769104,112.934822 177.896988,111.959114 178.032669,110.536942 
	C178.062363,104.413635 178.084274,98.736794 178.106186,93.059952 
	C183.978210,92.712189 189.855118,92.039864 195.720581,92.128143 
	C199.787216,92.189346 201.242966,91.072266 201.048767,86.871078 
	C200.798904,81.465172 201.250732,76.026825 201.957886,70.304878 
	C202.515472,70.007301 203.002548,69.964272 203.334778,69.979263 
	C204.110123,69.983452 204.553268,69.972641 205.464172,69.978592 
	C211.593277,70.017525 217.254623,70.039688 222.888062,70.301987 
	C222.860184,70.542130 223.027145,70.997513 222.914658,71.454430 
	C222.865692,77.940102 222.929230,83.968857 222.876862,90.268616 
	C224.788574,91.384010 226.780655,92.833565 228.850662,92.955048 
	C234.246201,93.271683 239.675903,93.006248 244.991501,93.433891 
	C244.933212,100.615204 244.975403,107.335594 244.548157,114.073425 
	C237.127945,114.090866 230.177185,114.090866 222.965240,114.090866 
	C222.965240,121.686676 222.965240,128.907898 222.965240,136.244965 
	C230.405319,136.244965 237.567932,136.244965 244.929367,136.244965 
	C244.929367,128.548981 244.929367,121.256226 245.390442,114.085358 
	C252.567780,114.135674 259.284027,114.064102 266.234985,114.079956 
	C266.634613,114.141472 266.799530,114.115578 266.982574,114.552399 
	C266.970032,129.332916 266.939423,143.650711 266.908783,157.968521 
	C260.920685,157.996368 254.928879,158.160110 248.946060,157.995880 
	C245.862625,157.911240 244.871887,159.038635 244.953995,162.049454 
	C245.117172,168.033173 244.978378,174.025131 244.963333,180.478088 
	C244.962311,180.942474 244.992355,180.965759 244.653549,180.968018 
	C243.884567,180.989594 243.454391,181.008911 242.554504,181.009613 
	C236.961960,180.986221 231.836227,181.082733 226.717484,180.935974 
	C223.966095,180.857086 222.871857,181.817612 222.940521,184.640854 
	C223.081131,190.421112 222.972565,196.207458 222.949036,202.229889 
	C222.931442,202.468506 222.960419,202.946167 222.960419,202.946167 
	C222.960419,202.946167 223.000763,202.997620 222.509003,202.978210 
	C216.250702,202.970810 210.481979,203.080612 204.718567,202.952225 
	C201.971375,202.891022 200.892471,203.840225 200.959946,206.651627 
	C201.098282,212.414658 200.984909,218.183746 200.766556,224.068787 
	C200.296478,224.385223 200.103790,224.636047 199.512848,224.957077 
	C193.597488,224.978226 188.146667,225.080414 182.701813,224.944565 
	C179.957855,224.876114 178.853333,225.821136 178.922485,228.645172 
	C179.063904,234.420166 178.958237,240.201218 178.954315,245.979767 
	C171.790955,246.188370 164.627579,246.396988 157.196533,245.844101 
	C156.940674,239.969696 156.758759,234.846466 157.030106,229.747360 
	C157.222107,226.139053 156.166397,224.714264 152.349503,224.903275 
	C146.591644,225.188431 140.808060,224.954071 134.841476,224.573212 
	C134.431641,218.766525 133.891022,213.314270 134.106018,207.891968 
	C134.268219,203.800888 132.798386,202.746063 128.971939,202.931076 
	C123.340065,203.203354 117.684387,202.983154 112.038849,202.972733 
	C112.038849,202.972733 111.999588,202.999817 112.028046,202.738983 
	C112.056511,202.478165 112.028168,201.994934 112.027870,201.526657 
	C112.023712,195.605377 111.919304,190.149826 112.058014,184.700455 
	C112.128349,181.936966 111.150154,180.863602 108.339531,180.938080 
	C102.559914,181.091278 96.773895,181.003494 90.752663,180.996704 
	C90.514809,180.978500 90.037712,180.976044 90.037712,180.976044 
	C90.037712,180.976044 90.006401,180.956879 90.023270,180.946991 
	C90.029968,175.160629 89.684761,169.359177 90.113113,163.615417 
	C90.471123,158.814865 88.588814,157.559341 84.212517,157.998672 
	C79.153175,158.506561 74.057381,158.651443 68.525803,158.956390 
	C68.074196,158.958832 68.026558,158.959961 68.060455,158.708099 
	C68.094360,158.456238 68.059021,157.989090 68.059021,157.989090 
	C68.037079,129.308441 68.015137,100.627800 68.000999,71.211304 
	C67.988853,70.297867 67.968895,70.120285 67.948944,69.942703 
	C67.948944,69.942703 67.967239,69.951019 67.960442,69.946320 
	C89.612740,69.979736 111.271843,70.017853 133.380905,70.118271 
z"/>
<path fill="#B21B20" opacity="1.000000" stroke="none" 
	d="
M67.484528,69.942337 
	C67.968895,70.120285 67.988853,70.297867 67.996933,70.743370 
	C61.543171,70.896706 55.101284,70.782112 48.353657,70.396240 
	C54.371979,70.063957 60.696045,70.002968 67.484528,69.942337 
z"/>
<path fill="#B21B20" opacity="1.000000" stroke="none" 
	d="
M67.889359,158.036041 
	C68.059021,157.989090 68.094360,158.456238 68.074158,158.689514 
	C67.889214,158.878159 67.724480,158.833527 67.356613,158.632965 
	C67.308342,158.297073 67.497078,158.165710 67.889359,158.036041 
z"/>
<path fill="#B6161B" opacity="1.000000" stroke="none" 
	d="
M203.002548,69.964272 
	C203.002548,69.964272 202.515472,70.007301 202.272324,70.029472 
	C201.744980,69.739365 201.460770,69.427086 200.973099,69.076065 
	C200.645432,62.988266 200.521240,56.939209 200.553009,50.441566 
	C204.073288,49.622429 207.437592,49.251881 210.900391,48.504585 
	C228.022537,48.086277 245.046173,48.044712 262.616425,48.427864 
	C264.108551,50.891254 265.698669,52.877262 265.870422,54.979160 
	C266.275269,59.933819 266.004089,64.943718 265.537567,69.956009 
	C258.326752,70.016396 251.584747,70.052025 244.630280,70.081558 
	C244.417816,70.075447 244.017548,70.217743 243.557373,70.118668 
	C236.726700,70.071922 230.356186,70.124245 223.723389,70.100082 
	C223.279358,70.036346 223.097656,70.049103 222.915955,70.061852 
	C217.254623,70.039688 211.593277,70.017525 205.459396,69.637619 
	C204.624542,68.682289 204.262253,68.084694 203.899963,67.487106 
	C203.600830,68.312820 203.301682,69.138550 203.002548,69.964272 
z"/>
<path fill="#B0151C" opacity="1.000000" stroke="none" 
	d="
M266.006348,69.931267 
	C266.004089,64.943718 266.275269,59.933819 265.870422,54.979160 
	C265.698669,52.877262 264.108551,50.891254 263.081360,48.490242 
	C264.055664,48.064415 265.111603,48.000927 266.562805,47.981064 
	C267.008972,54.987759 267.059937,61.950829 267.154144,69.367340 
	C267.197388,69.820786 267.014435,69.985703 266.720551,70.002686 
	C266.426666,70.019669 266.006348,69.931267 266.006348,69.931267 
z"/>
<path fill="#B6151A" opacity="1.000000" stroke="none" 
	d="
M177.627533,93.040825 
	C178.084274,98.736794 178.062363,104.413635 177.766464,110.741745 
	C177.328613,112.257126 177.164764,113.121239 177.000900,113.985359 
	C171.363998,113.997276 165.723694,113.896782 160.091599,114.067314 
	C157.160461,114.156067 155.786057,113.279793 156.011002,110.141937 
	C156.399826,104.717445 156.583038,99.278198 156.887146,93.432114 
	C163.664139,93.019943 170.406509,93.020821 177.627533,93.040825 
z"/>
<path fill="#B8151B" opacity="1.000000" stroke="none" 
	d="
M135.035400,224.940521 
	C140.808060,224.954071 146.591644,225.188431 152.349503,224.903275 
	C156.166397,224.714264 157.222107,226.139053 157.030106,229.747360 
	C156.758759,234.846466 156.940674,239.969696 156.880646,245.551819 
	C156.832443,246.021027 156.406448,246.025482 155.727478,246.017258 
	C148.702911,246.310059 142.357285,246.611069 136.011673,246.912079 
	C135.572647,246.983536 135.133621,247.054993 134.370407,247.044495 
	C134.092850,246.503860 134.139496,246.045166 134.481445,244.918823 
	C134.862946,237.814270 134.949173,231.377380 135.035400,224.940521 
z"/>
<path fill="#B11A20" opacity="1.000000" stroke="none" 
	d="
M179.427185,245.987061 
	C178.958237,240.201218 179.063904,234.420166 178.922485,228.645172 
	C178.853333,225.821136 179.957855,224.876114 182.701813,224.944565 
	C188.146667,225.080414 193.597488,224.978226 199.519760,225.431732 
	C200.231003,232.221802 200.468323,238.554565 200.705643,244.887314 
	C200.762650,245.347610 200.819641,245.807907 200.915878,246.615540 
	C200.511383,246.995499 200.067642,247.028122 199.293854,246.973236 
	C192.609222,246.588623 186.254639,246.291489 179.427185,245.987061 
z"/>
<path fill="#A52025" opacity="1.000000" stroke="none" 
	d="
M136.475922,246.971436 
	C142.357285,246.611069 148.702911,246.310059 155.514557,246.022919 
	C155.979294,246.214630 155.978012,246.392456 155.964020,246.836792 
	C149.614273,247.079147 143.277237,247.054962 136.475922,246.971436 
z"/>
<path fill="#B6151B" opacity="1.000000" stroke="none" 
	d="
M267.285706,157.830597 
	C266.939423,143.650711 266.970032,129.332916 266.992096,114.278748 
	C266.930603,113.368179 266.877686,113.193985 266.907806,112.556671 
	C266.905945,105.731667 266.821075,99.369797 266.795288,92.798889 
	C266.854340,92.589844 266.854034,92.155388 266.893524,91.678619 
	C266.967590,84.471107 267.002197,77.740379 267.036804,71.009644 
	C272.356262,71.008316 277.688385,71.231316 282.990936,70.931259 
	C286.894592,70.710358 288.111969,71.932167 288.086792,75.941269 
	C287.916718,103.036156 287.996643,130.132629 287.993103,157.717804 
	C287.990540,158.207031 287.699249,158.286621 287.331177,158.204498 
	C286.643097,158.146622 286.372162,158.274506 286.150299,158.506073 
	C283.051788,158.566147 279.953247,158.626205 276.401276,158.563812 
	C273.186096,158.191788 270.424377,157.942245 267.285706,157.830597 
z"/>
<path fill="#B0151C" opacity="1.000000" stroke="none" 
	d="
M135.342590,70.389633 
	C141.367508,70.079323 147.699173,70.042030 154.487549,70.087387 
	C148.512634,70.334244 142.080978,70.498459 135.342590,70.389633 
z"/>
<path fill="#B0151C" opacity="1.000000" stroke="none" 
	d="
M156.777878,91.849503 
	C156.812790,92.113930 156.387177,92.135078 156.175293,92.109322 
	C156.007690,91.845612 156.091904,91.622772 156.328079,91.280502 
	C156.541061,91.292343 156.642014,91.438713 156.777878,91.849503 
z"/>
<path fill="#B4151B" opacity="1.000000" stroke="none" 
	d="
M90.990517,181.014893 
	C96.773895,181.003494 102.559914,181.091278 108.339531,180.938080 
	C111.150154,180.863602 112.128349,181.936966 112.058014,184.700455 
	C111.919304,190.149826 112.023712,195.605377 111.556671,201.525665 
	C105.086716,202.215973 99.087662,202.439011 93.088608,202.662048 
	C92.331917,202.774902 91.575226,202.887756 90.436432,202.976105 
	C90.053558,202.507721 90.052780,202.063858 90.325775,201.099396 
	C90.459427,199.731857 90.319298,198.884888 90.179169,198.037933 
	C90.144775,197.263748 90.110374,196.489578 90.384071,195.016663 
	C90.791618,189.883575 90.891068,185.449234 90.990517,181.014893 
z"/>
<path fill="#A52025" opacity="1.000000" stroke="none" 
	d="
M90.752663,180.996689 
	C90.891068,185.449234 90.791618,189.883575 90.437546,194.631958 
	C90.129921,190.600143 90.076920,186.254288 90.030807,181.442230 
	C90.037712,180.976044 90.514809,180.978500 90.752663,180.996689 
z"/>
<path fill="#A52025" opacity="1.000000" stroke="none" 
	d="
M90.113403,198.400558 
	C90.319298,198.884888 90.459427,199.731857 90.386063,200.770691 
	C90.130920,200.229446 90.089279,199.496307 90.113403,198.400558 
z"/>
<path fill="#B6151B" opacity="1.000000" stroke="none" 
	d="
M222.966614,201.991272 
	C222.972565,196.207458 223.081131,190.421112 222.940521,184.640854 
	C222.871857,181.817612 223.966095,180.857086 226.717484,180.935974 
	C231.836227,181.082733 236.961960,180.986221 242.717926,181.390167 
	C243.567169,183.918396 243.835022,186.043716 243.988449,188.177261 
	C244.294632,192.434845 244.537994,196.696915 244.807312,200.957138 
	C244.876129,201.399292 244.944946,201.841431 244.977997,202.617584 
	C244.490723,202.936615 244.039246,202.921646 242.932861,202.578049 
	C235.840866,202.163376 229.403732,202.077316 222.966614,201.991272 
z"/>
<path fill="#A81C21" opacity="1.000000" stroke="none" 
	d="
M244.876419,200.496826 
	C244.537994,196.696915 244.294632,192.434845 243.988449,188.177261 
	C243.835022,186.043716 243.567169,183.918396 243.187637,181.408783 
	C243.454391,181.008911 243.884567,180.989594 244.637924,180.970642 
	C244.955917,187.326157 244.950729,193.681351 244.876419,200.496826 
z"/>
<path fill="#A52025" opacity="1.000000" stroke="none" 
	d="
M134.841476,224.573212 
	C134.949173,231.377380 134.862946,237.814270 134.552368,244.580261 
	C134.328003,238.516266 134.328003,232.123138 134.328003,225.090393 
	C126.707420,225.090393 119.840805,225.090393 112.513084,225.020660 
	C112.045464,217.938599 112.038948,210.926270 112.035637,203.443329 
	C117.684387,202.983154 123.340065,203.203354 128.971939,202.931076 
	C132.798386,202.746063 134.268219,203.800888 134.106018,207.891968 
	C133.891022,213.314270 134.431641,218.766525 134.841476,224.573212 
z"/>
<path fill="#A52025" opacity="1.000000" stroke="none" 
	d="
M93.540840,202.755890 
	C99.087662,202.439011 105.086716,202.215973 111.556969,201.993927 
	C112.028168,201.994934 112.056511,202.478165 112.042206,202.719727 
	C106.016289,202.924103 100.004684,202.886932 93.540840,202.755890 
z"/>
<path fill="#A81C21" opacity="1.000000" stroke="none" 
	d="
M200.975143,223.950333 
	C200.984909,218.183746 201.098282,212.414658 200.959946,206.651627 
	C200.892471,203.840225 201.971375,202.891022 204.718567,202.952225 
	C210.481979,203.080612 216.250702,202.970810 222.481842,202.960144 
	C222.996429,209.983383 223.046387,217.005264 223.021530,224.487686 
	C215.957870,224.981644 208.969055,225.015091 201.495178,224.793579 
	C200.998459,224.342529 200.986801,224.146423 200.975143,223.950333 
z"/>
<path fill="#A81C21" opacity="1.000000" stroke="none" 
	d="
M222.949036,202.229889 
	C229.403732,202.077316 235.840866,202.163376 242.602722,202.487213 
	C236.586060,202.794662 230.244644,202.864319 223.431824,202.940063 
	C222.960419,202.946167 222.931442,202.468506 222.949036,202.229889 
z"/>
<path fill="#AE1E23" opacity="1.000000" stroke="none" 
	d="
M200.766556,224.068787 
	C200.986801,224.146423 200.998459,224.342529 201.031464,224.832825 
	C201.000000,231.414307 200.947205,237.701614 200.800018,244.438110 
	C200.468323,238.554565 200.231003,232.221802 199.986786,225.414398 
	C200.103790,224.636047 200.296478,224.385223 200.766556,224.068787 
z"/>
<path fill="#AF1B22" opacity="1.000000" stroke="none" 
	d="
M286.383301,158.570541 
	C286.372162,158.274506 286.643097,158.146622 287.198364,158.132690 
	C287.237976,158.434830 286.965515,158.598846 286.383301,158.570541 
z"/>
<path fill="#ED1C25" opacity="1.000000" stroke="none" 
	d="
M266.995209,70.793213 
	C267.002197,77.740379 266.967590,84.471107 266.542816,91.666687 
	C265.458405,92.198265 264.764191,92.264999 263.609436,92.234528 
	C258.745300,92.198631 254.341766,92.259933 249.544632,92.220734 
	C247.685135,91.744919 246.219223,91.369606 244.828613,90.531769 
	C244.843704,83.705307 244.783508,77.341370 244.796524,70.760803 
	C244.869736,70.544189 244.842728,70.087662 244.842728,70.087662 
	C251.584747,70.052025 258.326752,70.016396 265.537567,69.956009 
	C266.006348,69.931267 266.426666,70.019669 266.630035,70.086182 
	C266.833405,70.152695 266.953613,70.576775 266.995209,70.793213 
z"/>
<path fill="#FEF6F6" opacity="1.000000" stroke="none" 
	d="
M244.929367,113.963470 
	C244.929367,121.256226 244.929367,128.548981 244.929367,136.244965 
	C237.567932,136.244965 230.405319,136.244965 222.965240,136.244965 
	C222.965240,128.907898 222.965240,121.686676 222.965240,114.090866 
	C230.177185,114.090866 237.127945,114.090866 244.523285,114.053085 
	C244.967850,114.015305 244.929367,113.963470 244.929367,113.963470 
z"/>
<path fill="#FEFBFC" opacity="1.000000" stroke="none" 
	d="
M249.938217,92.321236 
	C254.341766,92.259933 258.745300,92.198631 263.819031,92.427582 
	C265.238220,92.814537 265.987183,92.911232 266.736206,93.007927 
	C266.821075,99.369797 266.905945,105.731667 266.719513,112.670517 
	C266.220276,113.448563 266.070984,113.696907 266.000305,113.992538 
	C259.284027,114.064102 252.567780,114.135674 245.390442,114.085358 
	C244.929367,113.963470 244.967850,114.015305 244.992722,114.035645 
	C244.975403,107.335594 244.933212,100.615204 245.355316,93.445297 
	C247.192474,92.770935 248.565353,92.546089 249.938217,92.321236 
z"/>
<path fill="#FEFDFC" opacity="1.000000" stroke="none" 
	d="
M244.723312,70.977425 
	C244.783508,77.341370 244.843704,83.705307 244.376221,90.532379 
	C236.896606,90.662880 229.944687,90.330246 222.992752,89.997620 
	C222.929230,83.968857 222.865692,77.940102 223.115829,71.371307 
	C223.685593,70.673119 223.871002,70.454887 223.985687,70.176575 
	C230.356186,70.124245 236.726700,70.071922 243.632538,70.280846 
	C244.306305,70.746826 244.491440,70.891937 244.723312,70.977425 
z"/>
<path fill="#FEF6F6" opacity="1.000000" stroke="none" 
	d="
M222.876862,90.268616 
	C229.944687,90.330246 236.896606,90.662880 244.300934,90.994904 
	C246.219223,91.369606 247.685135,91.744919 249.544632,92.220734 
	C248.565353,92.546089 247.192474,92.770935 245.455795,92.984375 
	C239.675903,93.006248 234.246201,93.271683 228.850662,92.955048 
	C226.780655,92.833565 224.788574,91.384010 222.876862,90.268616 
z"/>
<path fill="#B0151C" opacity="1.000000" stroke="none" 
	d="
M177.321060,113.947937 
	C177.164764,113.121239 177.328613,112.257126 177.758682,111.188202 
	C177.896988,111.959114 177.769104,112.934822 177.321060,113.947937 
z"/>
<path fill="#B0151C" opacity="1.000000" stroke="none" 
	d="
M203.334778,69.979263 
	C203.301682,69.138550 203.600830,68.312820 203.899963,67.487106 
	C204.262253,68.084694 204.624542,68.682289 204.991623,69.620857 
	C204.553268,69.972641 204.110123,69.983452 203.334778,69.979263 
z"/>
<path fill="#FEF6F6" opacity="1.000000" stroke="none" 
	d="
M266.234985,114.079956 
	C266.070984,113.696907 266.220276,113.448563 266.636475,113.133652 
	C266.877686,113.193985 266.930603,113.368179 266.973999,113.816032 
	C266.799530,114.115578 266.634613,114.141472 266.234985,114.079956 
z"/>
<path fill="#FEF6F6" opacity="1.000000" stroke="none" 
	d="
M223.723389,70.100082 
	C223.871002,70.454887 223.685593,70.673119 223.228317,70.914391 
	C223.027145,70.997513 222.860184,70.542130 222.888062,70.301987 
	C223.097656,70.049103 223.279358,70.036346 223.723389,70.100082 
z"/>
<path fill="#FEF6F6" opacity="1.000000" stroke="none" 
	d="
M244.796524,70.760803 
	C244.491440,70.891937 244.306305,70.746826 244.092712,70.379913 
	C244.017548,70.217743 244.417816,70.075447 244.630280,70.081558 
	C244.842728,70.087662 244.869736,70.544189 244.796524,70.760803 
z"/>
<path fill="#FEF6F6" opacity="1.000000" stroke="none" 
	d="
M266.795258,92.798889 
	C265.987183,92.911232 265.238220,92.814537 264.279602,92.524788 
	C264.764191,92.264999 265.458405,92.198265 266.503326,92.143463 
	C266.854034,92.155388 266.854340,92.589844 266.795258,92.798889 
z"/>
</svg>