<?xml version="1.0" standalone="no"?>
<!DOCTYPE svg PUBLIC "-//W3C//DTD SVG 20010904//EN"
 "http://www.w3.org/TR/2001/REC-SVG-20010904/DTD/svg10.dtd">
<svg version="1.0" xmlns="http://www.w3.org/2000/svg"
 width="550.000000pt" height="550.000000pt" viewBox="0 0 550.000000 550.000000"
 preserveAspectRatio="xMidYMid meet">

<g transform="translate(0.000000,550.000000) scale(0.100000,-0.100000)"
fill="#000000" stroke="none">
<path d="M1390 4323 c0 -32 -3 -88 -6 -125 l-7 -67 -121 -3 c-99 -2 -121 -6
-122 -18 -1 -8 -2 -63 -3 -122 l-1 -108 -122 3 -123 2 0 -500 0 -500 122 -3
122 -3 3 -122 3 -122 123 -3 122 -3 0 -124 0 -125 125 0 125 0 0 -125 0 -125
126 0 126 0 -3 -122 -4 -123 122 -3 122 -3 3 -122 3 -122 123 -3 122 -3 0
-124 0 -125 125 0 125 0 0 -125 0 -125 125 0 124 0 3 123 3 122 122 3 122 3 3
122 3 122 122 3 121 3 7 119 8 119 121 3 121 3 3 122 3 122 122 3 122 3 3 122
3 122 122 3 122 3 3 123 3 122 124 0 125 0 0 125 0 125 125 0 125 0 0 500 0
499 -122 3 -123 3 -3 122 -3 122 -122 3 -122 3 0 120 0 120 -25 2 c-14 1 -238
4 -497 5 l-473 3 0 -91 c0 -50 -3 -105 -6 -122 l-6 -31 -122 -3 -121 -3 -3
-122 -3 -123 -124 0 -125 0 0 125 0 125 -125 0 -125 0 0 125 0 125 -495 0
-495 0 0 -57z m490 -568 l0 -125 -125 0 -125 0 0 -125 0 -126 -122 3 -123 3
-3 248 -2 247 250 0 250 0 0 -125z"/>
</g>
</svg>
